<svg xmlns="http://www.w3.org/2000/svg" width="179" height="40" fill="none"><g clip-path="url(#a)"><path fill="#063B26" d="m31.667 15 2.083-4.583 4.584-2.083L33.75 6.25l-2.083-4.583-2.083 4.583L25 8.334l4.584 2.083L31.667 15zm-12.5.834L15 6.667l-4.166 9.167L1.667 20l9.167 4.167L15 33.334l4.167-9.167L28.334 20l-9.167-4.166zM31.667 25l-2.083 4.584L25 31.667l4.584 2.083 2.083 4.584 2.083-4.584 4.584-2.083-4.584-2.083L31.667 25z"/></g><path fill="#063B26" d="M69.56 19.864c0 2.507-.47 4.655-1.409 6.443-.932 1.78-2.204 3.144-3.818 4.09-1.606.948-3.428 1.421-5.466 1.421-2.038 0-3.863-.473-5.477-1.42-1.606-.955-2.879-2.322-3.818-4.102-.932-1.788-1.398-3.932-1.398-6.432 0-2.508.466-4.652 1.398-6.432.939-1.788 2.212-3.155 3.818-4.102 1.614-.947 3.44-1.42 5.477-1.42 2.038 0 3.86.473 5.466 1.42 1.614.947 2.886 2.314 3.818 4.102.94 1.78 1.41 3.924 1.41 6.432zm-4.238 0c0-1.765-.277-3.254-.83-4.466-.545-1.22-1.303-2.14-2.273-2.762-.97-.628-2.087-.943-3.352-.943-1.265 0-2.383.315-3.352.943-.97.622-1.731 1.542-2.284 2.762-.546 1.212-.818 2.7-.818 4.466 0 1.765.272 3.257.818 4.477.553 1.212 1.314 2.133 2.284 2.761.97.622 2.087.932 3.352.932 1.265 0 2.383-.31 3.352-.932.97-.628 1.728-1.549 2.273-2.761.553-1.22.83-2.712.83-4.477zm7.082 18.181v-24h4.046v2.887h.238a7.57 7.57 0 0 1 .898-1.352c.386-.485.91-.898 1.568-1.24.66-.348 1.5-.522 2.523-.522 1.348 0 2.564.345 3.648 1.034 1.09.682 1.954 1.694 2.59 3.034.645 1.334.966 2.97.966 4.91 0 1.916-.314 3.545-.943 4.886-.628 1.34-1.484 2.364-2.568 3.068-1.083.704-2.31 1.057-3.682 1.057-1 0-1.83-.167-2.488-.5-.66-.333-1.19-.735-1.591-1.205a7.804 7.804 0 0 1-.92-1.352h-.171v9.295h-4.114zm4.034-15.272c0 1.128.16 2.117.478 2.966.325.848.791 1.511 1.397 1.988.614.47 1.356.705 2.228.705.909 0 1.67-.243 2.284-.727.613-.493 1.075-1.163 1.386-2.012.318-.856.477-1.83.477-2.92 0-1.084-.155-2.046-.466-2.887-.31-.84-.772-1.5-1.386-1.977-.614-.477-1.379-.716-2.295-.716-.88 0-1.625.231-2.239.693-.614.463-1.08 1.11-1.398 1.944-.31.833-.466 1.814-.466 2.943zm23.722-8.727v3.181H90.126v-3.181h10.034zm-7.557-4.182h4.114V26.25c0 .553.083.977.25 1.273.174.288.401.485.682.59.28.107.59.16.932.16.257 0 .492-.02.704-.057.22-.038.386-.072.5-.102l.693 3.215c-.219.076-.534.16-.943.25a7.711 7.711 0 0 1-1.477.16c-1.03.03-1.958-.125-2.784-.466a4.33 4.33 0 0 1-1.966-1.614c-.477-.727-.712-1.636-.705-2.727V9.864zM102.641 31.5V14.046h4.113V31.5h-4.113zm2.068-19.932a2.4 2.4 0 0 1-1.682-.647c-.47-.44-.705-.966-.705-1.58 0-.621.235-1.148.705-1.58a2.378 2.378 0 0 1 1.682-.659c.659 0 1.219.22 1.682.66.469.431.704.958.704 1.579 0 .614-.235 1.14-.704 1.58-.463.431-1.023.647-1.682.647zm5.315 19.932V14.046h3.932v2.965h.205c.363-1 .966-1.78 1.806-2.34.841-.569 1.845-.853 3.012-.853 1.182 0 2.178.288 2.988.864.819.568 1.394 1.344 1.728 2.33h.182c.386-.97 1.037-1.743 1.954-2.319.924-.583 2.019-.875 3.284-.875 1.606 0 2.917.508 3.932 1.523 1.015 1.015 1.523 2.496 1.523 4.443V31.5h-4.125V20.42c0-1.083-.288-1.875-.864-2.375-.576-.507-1.28-.76-2.114-.76-.992 0-1.768.31-2.329.93-.553.614-.83 1.414-.83 2.399V31.5h-4.034V20.25c0-.901-.272-1.621-.818-2.16-.538-.537-1.242-.806-2.114-.806-.59 0-1.128.152-1.613.455A3.17 3.17 0 0 0 114.57 19c-.288.538-.432 1.167-.432 1.886V31.5h-4.114zm27.759 0V14.046h4.114V31.5h-4.114zm2.068-19.932a2.402 2.402 0 0 1-1.682-.647c-.469-.44-.704-.966-.704-1.58 0-.621.235-1.148.704-1.58a2.38 2.38 0 0 1 1.682-.659c.659 0 1.22.22 1.682.66.47.431.705.958.705 1.579 0 .614-.235 1.14-.705 1.58-.462.431-1.023.647-1.682.647zm5.088 19.932v-2.614l9-11.284v-.148h-8.704v-3.409h13.739v2.807l-8.569 11.091v.148h8.864V31.5h-14.33zm24.464.34c-1.75 0-3.262-.363-4.534-1.09-1.265-.735-2.239-1.773-2.921-3.114-.682-1.348-1.022-2.935-1.022-4.761 0-1.796.34-3.371 1.022-4.727.69-1.364 1.652-2.425 2.887-3.182 1.234-.765 2.685-1.148 4.352-1.148 1.076 0 2.091.174 3.045.523.962.34 1.811.871 2.546 1.59.742.72 1.326 1.637 1.75 2.75.424 1.107.636 2.425.636 3.955v1.262h-14.307v-2.773h10.364c-.008-.788-.178-1.489-.511-2.102a3.727 3.727 0 0 0-1.398-1.466c-.591-.356-1.28-.534-2.068-.534-.841 0-1.58.204-2.216.613a4.223 4.223 0 0 0-1.489 1.591 4.589 4.589 0 0 0-.534 2.148v2.42c0 1.016.186 1.887.557 2.614a3.97 3.97 0 0 0 1.557 1.66c.666.378 1.447.567 2.341.567a4.97 4.97 0 0 0 1.625-.25 3.613 3.613 0 0 0 1.261-.761c.356-.333.625-.746.807-1.239l3.841.432a5.993 5.993 0 0 1-1.387 2.66c-.674.75-1.538 1.333-2.591 1.75-1.053.408-2.257.613-3.613.613z"/><defs><clipPath id="a"><path fill="#fff" d="M0 0h40v40H0z"/></clipPath></defs></svg>